<?xml version="1.0" encoding="UTF-8"?>
<svg width="32" height="48" viewBox="0 0 32 48" xmlns="http://www.w3.org/2000/svg">
  <!-- Tronco em pixel art -->
  <rect x="12" y="24" width="8" height="24" fill="#8b4513" />
  <rect x="14" y="24" width="4" height="24" fill="#a0522d" />
  
  <!-- Copa da árvore em pixel art -->
  <rect x="8" y="4" width="16" height="20" fill="#2ecc71" />
  <rect x="4" y="8" width="24" height="16" fill="#2ecc71" />
  
  <!-- Sombras da copa em pixel -->
  <rect x="8" y="8" width="4" height="4" fill="#27ae60" />
  <rect x="20" y="8" width="4" height="4" fill="#27ae60" />
  <rect x="12" y="12" width="8" height="4" fill="#27ae60" />
  <rect x="8" y="16" width="4" height="4" fill="#27ae60" />
  <rect x="20" y="16" width="4" height="4" fill="#27ae60" />
  
  <!-- Detalhes em pixel -->
  <rect x="10" y="6" width="2" height="2" fill="#1e8449" />
  <rect x="20" y="6" width="2" height="2" fill="#1e8449" />
  <rect x="14" y="10" width="4" height="2" fill="#1e8449" />
  <rect x="8" y="14" width="2" height="2" fill="#1e8449" />
  <rect x="22" y="14" width="2" height="2" fill="#1e8449" />
  
  <!-- Detalhes do tronco em pixel -->
  <rect x="14" y="28" width="2" height="2" fill="#6b4423" />
  <rect x="16" y="32" width="2" height="2" fill="#6b4423" />
  <rect x="14" y="36" width="2" height="2" fill="#6b4423" />
  <rect x="16" y="40" width="2" height="2" fill="#6b4423" />
  <rect x="14" y="44" width="2" height="2" fill="#6b4423" />
</svg> 